name Walk5.mot
datacolumns 19
datarows 27
range 1.22100000 1.24700000
endheader

                time	   L_ground_force_vx	   L_ground_force_vy	   L_ground_force_vz	   L_ground_force_px	   L_ground_force_py	   L_ground_force_pz	   R_ground_force_vx	   R_ground_force_vy	   R_ground_force_vz	   R_ground_force_px	   R_ground_force_py	   R_ground_force_pz	   L_ground_torque_x	   L_ground_torque_y	   L_ground_torque_z	   R_ground_torque_x	   R_ground_torque_y	   R_ground_torque_z	
          1.22100000	          0.00000000	          0.00000000	          0.00000000	          0.00000000	          0.00000000	          0.00000000	          0.00000000	          0.00000000	          0.00000000	          0.00000000	          0.00000000	          0.00000000	          0.00000000	          0.00000000	          0.00000000	          0.00000000	          0.00000000	          0.00000000	
          1.22200000	          0.00000000	          0.00000000	          0.00000000	          0.00000000	          0.00000000	          0.00000000	          0.00000000	          0.00000000	          0.00000000	          0.00000000	          0.00000000	          0.00000000	          0.00000000	          0.00000000	          0.00000000	          0.00000000	          0.00000000	          0.00000000	
          1.22300000	          0.00000000	          0.00000000	          0.00000000	          0.00000000	          0.00000000	          0.00000000	          0.00000000	          0.00000000	          0.00000000	          0.00000000	          0.00000000	          0.00000000	          0.00000000	          0.00000000	          0.00000000	          0.00000000	          0.00000000	          0.00000000	
          1.22400000	          0.00000000	          0.00000000	          0.00000000	          0.00000000	          0.00000000	          0.00000000	          0.00000000	          0.00000000	          0.00000000	          0.00000000	          0.00000000	          0.00000000	          0.00000000	          0.00000000	          0.00000000	          0.00000000	          0.00000000	          0.00000000	
          1.22500000	          0.00000000	          0.00000000	          0.00000000	          0.00000000	          0.00000000	          0.00000000	          0.00000000	          0.00000000	          0.00000000	          0.00000000	          0.00000000	          0.00000000	          0.00000000	          0.00000000	          0.00000000	          0.00000000	          0.00000000	          0.00000000	
          1.22600000	          0.00000000	          0.00000000	          0.00000000	          0.00000000	          0.00000000	          0.00000000	          0.00000000	          0.00000000	          0.00000000	          0.00000000	          0.00000000	          0.00000000	          0.00000000	          0.00000000	          0.00000000	          0.00000000	          0.00000000	          0.00000000	
          1.22700000	          0.00000000	          0.00000000	          0.00000000	          0.00000000	          0.00000000	          0.00000000	         -0.14000932	         16.11229779	         -0.25358827	         -0.43480200	          0.00000000	         -0.05979819	          0.00000000	          0.00000000	          0.00000000	          0.00000000	         -0.05564081	          0.00000000	
          1.22800000	          0.00000000	          0.00000000	          0.00000000	          0.00000000	          0.00000000	          0.00000000	         -0.25203999	         30.40977830	         -0.57015333	         -0.43508639	          0.00000000	         -0.05840435	          0.00000000	          0.00000000	          0.00000000	          0.00000000	         -0.05035799	          0.00000000	
          1.22900000	          0.00000000	          0.00000000	          0.00000000	          0.00000000	          0.00000000	          0.00000000	         -0.37795999	         50.47433779	         -1.03824714	         -0.43487126	          0.00000000	         -0.05690521	          0.00000000	          0.00000000	          0.00000000	          0.00000000	         -0.02397122	          0.00000000	
          1.23000000	          0.00000000	          0.00000000	          0.00000000	          0.00000000	          0.00000000	          0.00000000	         -0.43982334	         77.36410799	         -1.70310982	         -0.43423795	          0.00000000	         -0.05541158	          0.00000000	          0.00000000	          0.00000000	          0.00000000	          0.02156320	          0.00000000	
          1.23100000	          0.00000000	          0.00000000	          0.00000000	          0.00000000	          0.00000000	          0.00000000	         -0.31670670	        111.33130134	         -2.62945183	         -0.43345819	          0.00000000	         -0.05415740	          0.00000000	          0.00000000	          0.00000000	          0.00000000	          0.07823048	          0.00000000	
          1.23200000	          0.00000000	          0.00000000	          0.00000000	          0.00000000	          0.00000000	          0.00000000	          0.09614852	        150.96176995	         -3.89017050	         -0.43276307	          0.00000000	         -0.05332545	          0.00000000	          0.00000000	          0.00000000	          0.00000000	          0.13559312	          0.00000000	
          1.23300000	          0.00000000	          0.00000000	          0.00000000	          0.00000000	          0.00000000	          0.00000000	          0.82057009	        192.93010317	         -5.53917678	         -0.43223340	          0.00000000	         -0.05295872	          0.00000000	          0.00000000	          0.00000000	          0.00000000	          0.18348916	          0.00000000	
          1.23400000	          0.00000000	          0.00000000	          0.00000000	          0.00000000	          0.00000000	          0.00000000	          1.74973186	        232.63865016	         -7.56280552	         -0.43185552	          0.00000000	         -0.05293298	          0.00000000	          0.00000000	          0.00000000	          0.00000000	          0.21422541	          0.00000000	
          1.23500000	          0.00000000	          0.00000000	          0.00000000	          0.00000000	          0.00000000	          0.00000000	          2.65539069	        265.52897754	         -9.84854076	         -0.43157743	          0.00000000	         -0.05305918	          0.00000000	          0.00000000	          0.00000000	          0.00000000	          0.22578216	          0.00000000	
          1.23600000	          0.00000000	          0.00000000	          0.00000000	          0.00000000	          0.00000000	          0.00000000	          3.24996487	        288.42239555	        -12.20313512	         -0.43132700	          0.00000000	         -0.05321038	          0.00000000	          0.00000000	          0.00000000	          0.00000000	          0.22411560	          0.00000000	
          1.23700000	          0.00000000	          0.00000000	          0.00000000	          0.00000000	          0.00000000	          0.00000000	          3.26887070	        300.23845022	        -14.40517886	         -0.43104028	          0.00000000	         -0.05334844	          0.00000000	          0.00000000	          0.00000000	          0.00000000	          0.21860479	          0.00000000	
          1.23800000	          0.00000000	          0.00000000	          0.00000000	          0.00000000	          0.00000000	          0.00000000	          2.54313246	        301.88971072	        -16.26594871	         -0.43069543	          0.00000000	         -0.05347059	          0.00000000	          0.00000000	          0.00000000	          0.00000000	          0.21421203	          0.00000000	
          1.23900000	          0.00000000	          0.00000000	          0.00000000	          0.00000000	          0.00000000	          0.00000000	          1.04404344	        295.66684454	        -17.67346394	         -0.43029593	          0.00000000	         -0.05357523	          0.00000000	          0.00000000	          0.00000000	          0.00000000	          0.21077427	          0.00000000	
          1.24000000	          0.00000000	          0.00000000	          0.00000000	          0.00000000	          0.00000000	          0.00000000	         -1.11370059	        284.50574249	        -18.60609072	         -0.42983573	          0.00000000	         -0.05367644	          0.00000000	          0.00000000	          0.00000000	          0.00000000	          0.20783426	          0.00000000	
          1.24100000	          0.00000000	          0.00000000	          0.00000000	          0.00000000	          0.00000000	          0.00000000	         -3.71966309	        271.32544175	        -19.11764961	         -0.42932701	          0.00000000	         -0.05380011	          0.00000000	          0.00000000	          0.00000000	          0.00000000	          0.20697724	          0.00000000	
          1.24200000	          0.00000000	          0.00000000	          0.00000000	          0.00000000	          0.00000000	          0.00000000	         -6.54542719	        258.54477361	        -19.30363972	         -0.42882223	          0.00000000	         -0.05393926	          0.00000000	          0.00000000	          0.00000000	          0.00000000	          0.21087943	          0.00000000	
          1.24300000	          0.00000000	          0.00000000	          0.00000000	          0.00000000	          0.00000000	          0.00000000	         -9.40518800	        247.85457033	        -19.26808023	         -0.42834824	          0.00000000	         -0.05403074	          0.00000000	          0.00000000	          0.00000000	          0.00000000	          0.22162205	          0.00000000	
          1.24400000	          0.00000000	          0.00000000	          0.00000000	          0.00000000	          0.00000000	          0.00000000	        -12.18152918	        240.21714090	        -19.10127050	         -0.42786344	          0.00000000	         -0.05401080	          0.00000000	          0.00000000	          0.00000000	          0.00000000	          0.23957213	          0.00000000	
          1.24500000	          0.00000000	          0.00000000	          0.00000000	          0.00000000	          0.00000000	          0.00000000	        -14.83055932	        235.97002596	        -18.86284902	         -0.42731536	          0.00000000	         -0.05390547	          0.00000000	          0.00000000	          0.00000000	          0.00000000	          0.26325194	          0.00000000	
          1.24600000	          0.00000000	          0.00000000	          0.00000000	          0.00000000	          0.00000000	          0.00000000	        -17.37170262	        234.95102844	        -18.57545444	         -0.42670699	          0.00000000	         -0.05382778	          0.00000000	          0.00000000	          0.00000000	          0.00000000	          0.29018172	          0.00000000	
          1.24700000	          0.00000000	          0.00000000	          0.00000000	          0.00000000	          0.00000000	          0.00000000	        -19.86489153	        236.67069802	        -18.23786717	         -0.42608813	          0.00000000	         -0.05388112	          0.00000000	          0.00000000	          0.00000000	          0.00000000	          0.31805822	          0.00000000	
